<?xml version="1.0" standalone="no"?>
<svg xmlns:xlink="http://www.w3.org/1999/xlink" id="wave" style="transform:rotate(0deg); transition: 0.3s" viewBox="0 0 1440 490" version="1.1" xmlns="http://www.w3.org/2000/svg"><defs><linearGradient id="sw-gradient-0" x1="0" x2="0" y1="1" y2="0"><stop stop-color="rgba(255, 193, 7, 0.5)" offset="0%"/><stop stop-color="rgba(255, 193, 7, 0.5)" offset="100%"/></linearGradient></defs><path style="transform:translate(0, 0px); opacity:1" fill="url(#sw-gradient-0)" d="M0,147L60,179.7C120,212,240,278,360,310.3C480,343,600,343,720,310.3C840,278,960,212,1080,179.7C1200,147,1320,147,1440,138.8C1560,131,1680,114,1800,155.2C1920,196,2040,294,2160,318.5C2280,343,2400,294,2520,245C2640,196,2760,147,2880,179.7C3000,212,3120,327,3240,359.3C3360,392,3480,343,3600,277.7C3720,212,3840,131,3960,106.2C4080,82,4200,114,4320,147C4440,180,4560,212,4680,228.7C4800,245,4920,245,5040,212.3C5160,180,5280,114,5400,81.7C5520,49,5640,49,5760,40.8C5880,33,6000,16,6120,49C6240,82,6360,163,6480,204.2C6600,245,6720,245,6840,228.7C6960,212,7080,180,7200,196C7320,212,7440,278,7560,285.8C7680,294,7800,245,7920,220.5C8040,196,8160,196,8280,228.7C8400,261,8520,327,8580,359.3L8640,392L8640,490L8580,490C8520,490,8400,490,8280,490C8160,490,8040,490,7920,490C7800,490,7680,490,7560,490C7440,490,7320,490,7200,490C7080,490,6960,490,6840,490C6720,490,6600,490,6480,490C6360,490,6240,490,6120,490C6000,490,5880,490,5760,490C5640,490,5520,490,5400,490C5280,490,5160,490,5040,490C4920,490,4800,490,4680,490C4560,490,4440,490,4320,490C4200,490,4080,490,3960,490C3840,490,3720,490,3600,490C3480,490,3360,490,3240,490C3120,490,3000,490,2880,490C2760,490,2640,490,2520,490C2400,490,2280,490,2160,490C2040,490,1920,490,1800,490C1680,490,1560,490,1440,490C1320,490,1200,490,1080,490C960,490,840,490,720,490C600,490,480,490,360,490C240,490,120,490,60,490L0,490Z"/></svg>