<?xml version="1.0" standalone="no"?>
<svg xmlns:xlink="http://www.w3.org/1999/xlink" id="wave" style="transform:rotate(180deg); transition: 0.3s" viewBox="0 0 1440 490" version="1.1" xmlns="http://www.w3.org/2000/svg"><defs><linearGradient id="sw-gradient-0" x1="0" x2="0" y1="1" y2="0"><stop stop-color="rgba(255, 193, 7, 0.5)" offset="0%"/><stop stop-color="rgba(255, 175.574, 0, 1)" offset="100%"/></linearGradient></defs><path style="transform:translate(0, 0px); opacity:1" fill="url(#sw-gradient-0)" d="M0,441L10,416.5C20,392,40,343,60,285.8C80,229,100,163,120,138.8C140,114,160,131,180,138.8C200,147,220,147,240,147C260,147,280,147,300,122.5C320,98,340,49,360,32.7C380,16,400,33,420,73.5C440,114,460,180,480,245C500,310,520,376,540,359.3C560,343,580,245,600,171.5C620,98,640,49,660,32.7C680,16,700,33,720,73.5C740,114,760,180,780,228.7C800,278,820,310,840,334.8C860,359,880,376,900,318.5C920,261,940,131,960,89.8C980,49,1000,98,1020,147C1040,196,1060,245,1080,269.5C1100,294,1120,294,1140,277.7C1160,261,1180,229,1200,245C1220,261,1240,327,1260,351.2C1280,376,1300,359,1320,318.5C1340,278,1360,212,1380,212.3C1400,212,1420,278,1430,310.3L1440,343L1440,490L1430,490C1420,490,1400,490,1380,490C1360,490,1340,490,1320,490C1300,490,1280,490,1260,490C1240,490,1220,490,1200,490C1180,490,1160,490,1140,490C1120,490,1100,490,1080,490C1060,490,1040,490,1020,490C1000,490,980,490,960,490C940,490,920,490,900,490C880,490,860,490,840,490C820,490,800,490,780,490C760,490,740,490,720,490C700,490,680,490,660,490C640,490,620,490,600,490C580,490,560,490,540,490C520,490,500,490,480,490C460,490,440,490,420,490C400,490,380,490,360,490C340,490,320,490,300,490C280,490,260,490,240,490C220,490,200,490,180,490C160,490,140,490,120,490C100,490,80,490,60,490C40,490,20,490,10,490L0,490Z"/></svg>